<?xml version="1.0" encoding="utf-8"?>
<!-- Generator: Adobe Illustrator 18.0.0, SVG Export Plug-In . SVG Version: 6.00 Build 0)  -->
<!DOCTYPE svg PUBLIC "-//W3C//DTD SVG 1.1//EN" "http://www.w3.org/Graphics/SVG/1.1/DTD/svg11.dtd">
<svg version="1.1" xmlns="http://www.w3.org/2000/svg" xmlns:xlink="http://www.w3.org/1999/xlink" x="0px" y="0px"
	 viewBox="0 0 230 30" enable-background="new 0 0 230 30" xml:space="preserve">
<g id="Layer_2">
	<g>
		<path stroke="#000000" stroke-width="2" stroke-miterlimit="10" d="M4,24.3L7.8,4.5h3.9L8.6,20.6h5.5l-0.7,3.7H4z"/>
		<path stroke="#000000" stroke-width="2" stroke-miterlimit="10" d="M19.5,20.3l-1.6,4h-4l7.7-19.8h5.2l0,19.8h-4l0-4H19.5z
			 M20.9,16.6h1.9l0.7-8.4L20.9,16.6z"/>
		<path stroke="#000000" stroke-width="2" stroke-miterlimit="10" d="M33.2,8.1h-3.8l0.7-3.7h11.6L41,8.1h-3.8L34,24.3h-3.9
			L33.2,8.1z"/>
		<path stroke="#000000" stroke-width="2" stroke-miterlimit="10" d="M43.5,20.3l-1.6,4h-4l7.7-19.8h5.2l0,19.8h-4l0-4H43.5z
			 M44.9,16.6h1.9l0.7-8.4L44.9,16.6z"/>
		<path stroke="#000000" stroke-width="2" stroke-miterlimit="10" d="M74.5,4.5l-3.9,19.8h-3.9l2.5-13.1l-5.3,13.1h-4.8l-0.2-13.1
			l-2.5,13.1h-3.9l3.9-19.8h5.5l0.5,16.1L69,4.5H74.5z"/>
		<path stroke="#000000" stroke-width="2" stroke-miterlimit="10" d="M90.2,8.1h-3.7l-0.6,3.1c-0.2,0.9,0.4,1.3,1.6,1.3
			c1.6,0,2.9,0.4,3.8,1.3c1,0.9,1.3,2.1,1,3.7l-0.8,4.1c-0.1,0.8-0.6,1.4-1.2,1.9c-0.7,0.5-1.4,0.8-2.2,0.8h-5.8
			c-0.8,0-1.4-0.3-1.9-0.8c-0.5-0.5-0.6-1.2-0.5-1.9l0.8-4h3.9l-0.6,3h3.7l0.6-3.1c0.2-0.9-0.4-1.3-1.6-1.3c-1.6,0-2.9-0.4-3.8-1.3
			c-1-0.9-1.3-2.1-1-3.7l0.8-4.1c0.1-0.8,0.6-1.4,1.2-1.9c0.7-0.5,1.4-0.8,2.2-0.8h5.8c0.8,0,1.4,0.3,1.9,0.8
			c0.5,0.5,0.6,1.2,0.5,1.9l-0.8,4h-3.9L90.2,8.1z"/>
		<path stroke="#000000" stroke-width="2" stroke-miterlimit="10" d="M99.3,8.1h-3.8l0.7-3.7h11.6L107,8.1h-3.8l-3.1,16.2h-3.9
			L99.3,8.1z"/>
		<path stroke="#000000" stroke-width="2" stroke-miterlimit="10" d="M109.5,20.3l-1.6,4h-4l7.7-19.8h5.2l0,19.8h-4l0-4H109.5z
			 M110.9,16.6h1.9l0.7-8.4L110.9,16.6z"/>
		<path stroke="#000000" stroke-width="2" stroke-miterlimit="10" d="M124,16.2l-1.6,8.1h-3.9l3.9-19.8h3.9l-1.6,8.1h1.5l4-8.1h4
			l-4.9,9.9l1.1,9.9h-4l-0.9-8.1H124z"/>
		<path stroke="#000000" stroke-width="2" stroke-miterlimit="10" d="M132,24.3l3.9-19.8h3.9L136,24.3H132z"/>
		<path stroke="#000000" stroke-width="2" stroke-miterlimit="10" d="M145.5,11.5l-2.5,12.8h-3.9L143,4.5h5.5l0.7,12.8l2.5-12.8h3.9
			l-3.9,19.8h-5.4L145.5,11.5z"/>
		<path stroke="#000000" stroke-width="2" stroke-miterlimit="10" d="M163.7,17.2h-1.9l0.7-3.7h5.8l-1.6,8c-0.1,0.8-0.6,1.4-1.2,1.9
			c-0.7,0.5-1.4,0.8-2.2,0.8h-5.8c-0.8,0-1.4-0.3-1.9-0.8c-0.5-0.5-0.6-1.2-0.5-1.9L158,7.2c0.1-0.8,0.6-1.4,1.2-1.9
			c0.7-0.5,1.4-0.8,2.2-0.8h5.8c0.8,0,1.4,0.3,1.9,0.8c0.5,0.5,0.6,1.2,0.5,1.9l-0.8,4h-3.9l0.6-3h-3.7l-2.4,12.5h3.7L163.7,17.2z"
			/>
		<path stroke="#000000" stroke-width="2" stroke-miterlimit="10" d="M178.8,4.5h8.7c0.8,0,1.4,0.3,1.9,0.8c0.5,0.5,0.6,1.2,0.5,1.9
			l-1,5.1c-0.3,1.5-1.1,2.7-2.4,3.6c-1.3,0.9-2.7,1.3-4.3,1.3h-1.9l-1.4,7.1h-3.9L178.8,4.5z M182,8.1l-1.1,5.4h1.9
			c1.2,0,1.9-0.4,2.1-1.3l0.8-4.1H182z"/>
		<path stroke="#000000" stroke-width="2" stroke-miterlimit="10" d="M201,4.5c0.8,0,1.4,0.3,1.9,0.8c0.5,0.5,0.6,1.2,0.5,1.9
			l-2.8,14.4c-0.1,0.8-0.6,1.4-1.2,1.9c-0.7,0.5-1.4,0.8-2.2,0.8h-5.8c-0.8,0-1.4-0.3-1.9-0.8c-0.5-0.5-0.6-1.2-0.5-1.9l2.8-14.4
			c0.1-0.8,0.6-1.4,1.2-1.9c0.7-0.5,1.4-0.8,2.2-0.8H201z M195.6,8.1l-2.4,12.5h3.7l2.4-12.5H195.6z"/>
		<path stroke="#000000" stroke-width="2" stroke-miterlimit="10" d="M215.5,4.5c0.8,0,1.4,0.3,1.9,0.8c0.5,0.5,0.6,1.2,0.5,1.9
			l-2.8,14.4c-0.1,0.8-0.6,1.4-1.2,1.9c-0.7,0.5-1.4,0.8-2.2,0.8h-5.8c-0.8,0-1.4-0.3-1.9-0.8c-0.5-0.5-0.6-1.2-0.5-1.9l2.8-14.4
			c0.1-0.8,0.6-1.4,1.2-1.9c0.7-0.5,1.4-0.8,2.2-0.8H215.5z M210,8.1l-2.4,12.5h3.7l2.4-12.5H210z"/>
		<path stroke="#000000" stroke-width="2" stroke-miterlimit="10" d="M217.6,24.3l3.9-19.8h3.9l-3.1,16.2h5.5l-0.7,3.7H217.6z"/>
	</g>
</g>
<g id="Layer_1">
	<g>
		<path fill="#D4A9D2" stroke="#000000" stroke-miterlimit="10" d="M2.5,26.3L6.4,6.5h3.9L7.2,22.7h5.5l-0.7,3.7H2.5z"/>
		<path fill="#D4A9D2" stroke="#000000" stroke-miterlimit="10" d="M18,22.3l-1.6,4h-4l7.7-19.8h5.2l0,19.8h-4l0-4H18z M19.4,18.6
			h1.9l0.7-8.4L19.4,18.6z"/>
		<path fill="#D4A9D2" stroke="#000000" stroke-miterlimit="10" d="M31.8,10.2h-3.8l0.7-3.7h11.6l-0.7,3.7h-3.8l-3.1,16.2h-3.9
			L31.8,10.2z"/>
		<path fill="#D4A9D2" stroke="#000000" stroke-miterlimit="10" d="M42,22.3l-1.6,4h-4l7.7-19.8h5.2l0,19.8h-4l0-4H42z M43.4,18.6
			h1.9l0.7-8.4L43.4,18.6z"/>
		<path fill="#D4A9D2" stroke="#000000" stroke-miterlimit="10" d="M73,6.5l-3.9,19.8h-3.9l2.5-13.1l-5.3,13.1h-4.8l-0.2-13.1
			l-2.5,13.1H51l3.9-19.8h5.5l0.5,16.1l6.7-16.1H73z"/>
		<path fill="#D4A9D2" stroke="#000000" stroke-miterlimit="10" d="M88.7,10.2H85l-0.6,3.1c-0.2,0.9,0.4,1.3,1.6,1.3
			c1.6,0,2.9,0.4,3.8,1.3c1,0.9,1.3,2.1,1,3.7L90,23.6c-0.1,0.8-0.6,1.4-1.2,1.9c-0.7,0.5-1.4,0.8-2.2,0.8h-5.8
			c-0.8,0-1.4-0.3-1.9-0.8c-0.5-0.5-0.6-1.2-0.5-1.9l0.8-4h3.9l-0.6,3h3.7l0.6-3.1c0.2-0.9-0.4-1.3-1.6-1.3c-1.6,0-2.9-0.4-3.8-1.3
			c-1-0.9-1.3-2.1-1-3.7l0.8-4.1c0.1-0.8,0.6-1.4,1.2-1.9c0.7-0.5,1.4-0.8,2.2-0.8h5.8c0.8,0,1.4,0.3,1.9,0.8
			c0.5,0.5,0.6,1.2,0.5,1.9l-0.8,4h-3.9L88.7,10.2z"/>
		<path fill="#D4A9D2" stroke="#000000" stroke-miterlimit="10" d="M97.8,10.2H94l0.7-3.7h11.6l-0.7,3.7h-3.8l-3.1,16.2h-3.9
			L97.8,10.2z"/>
		<path fill="#D4A9D2" stroke="#000000" stroke-miterlimit="10" d="M108,22.3l-1.6,4h-4l7.7-19.8h5.2l0,19.8h-4l0-4H108z
			 M109.4,18.6h1.9l0.7-8.4L109.4,18.6z"/>
		<path fill="#D4A9D2" stroke="#000000" stroke-miterlimit="10" d="M122.5,18.3l-1.6,8.1H117l3.9-19.8h3.9l-1.6,8.1h1.5l4-8.1h4
			l-4.9,9.9l1.1,9.9h-4l-0.9-8.1H122.5z"/>
		<path fill="#D4A9D2" stroke="#000000" stroke-miterlimit="10" d="M130.6,26.3l3.9-19.8h3.9l-3.9,19.8H130.6z"/>
		<path fill="#D4A9D2" stroke="#000000" stroke-miterlimit="10" d="M144.1,13.6l-2.5,12.8h-3.9l3.9-19.8h5.5l0.7,12.8l2.5-12.8h3.9
			l-3.9,19.8h-5.4L144.1,13.6z"/>
		<path fill="#D4A9D2" stroke="#000000" stroke-miterlimit="10" d="M162.3,19.3h-1.9l0.7-3.7h5.8l-1.6,8c-0.1,0.8-0.6,1.4-1.2,1.9
			c-0.7,0.5-1.4,0.8-2.2,0.8h-5.8c-0.8,0-1.4-0.3-1.9-0.8c-0.5-0.5-0.6-1.2-0.5-1.9l2.8-14.4c0.1-0.8,0.6-1.4,1.2-1.9
			c0.7-0.5,1.4-0.8,2.2-0.8h5.8c0.8,0,1.4,0.3,1.9,0.8c0.5,0.5,0.6,1.2,0.5,1.9l-0.8,4h-3.9l0.6-3h-3.7l-2.4,12.5h3.7L162.3,19.3z"
			/>
		<path fill="#D4A9D2" stroke="#000000" stroke-miterlimit="10" d="M177.3,6.5h8.7c0.8,0,1.4,0.3,1.9,0.8c0.5,0.5,0.6,1.2,0.5,1.9
			l-1,5.1c-0.3,1.5-1.1,2.7-2.4,3.6c-1.3,0.9-2.7,1.3-4.3,1.3h-1.9l-1.4,7.1h-3.9L177.3,6.5z M180.5,10.2l-1.1,5.4h1.9
			c1.2,0,1.9-0.4,2.1-1.3l0.8-4.1H180.5z"/>
		<path fill="#D4A9D2" stroke="#000000" stroke-miterlimit="10" d="M199.6,6.5c0.8,0,1.4,0.3,1.9,0.8c0.5,0.5,0.6,1.2,0.5,1.9
			l-2.8,14.4c-0.1,0.8-0.6,1.4-1.2,1.9c-0.7,0.5-1.4,0.8-2.2,0.8h-5.8c-0.8,0-1.4-0.3-1.9-0.8c-0.5-0.5-0.6-1.2-0.5-1.9l2.8-14.4
			c0.1-0.8,0.6-1.4,1.2-1.9c0.7-0.5,1.4-0.8,2.2-0.8H199.6z M194.1,10.2l-2.4,12.5h3.7l2.4-12.5H194.1z"/>
		<path fill="#D4A9D2" stroke="#000000" stroke-miterlimit="10" d="M214,6.5c0.8,0,1.4,0.3,1.9,0.8c0.5,0.5,0.6,1.2,0.5,1.9
			l-2.8,14.4c-0.1,0.8-0.6,1.4-1.2,1.9c-0.7,0.5-1.4,0.8-2.2,0.8h-5.8c-0.8,0-1.4-0.3-1.9-0.8c-0.5-0.5-0.6-1.2-0.5-1.9l2.8-14.4
			c0.1-0.8,0.6-1.4,1.2-1.9c0.7-0.5,1.4-0.8,2.2-0.8H214z M208.6,10.2l-2.4,12.5h3.7l2.4-12.5H208.6z"/>
		<path fill="#D4A9D2" stroke="#000000" stroke-miterlimit="10" d="M216.1,26.3L220,6.5h3.9l-3.1,16.2h5.5l-0.7,3.7H216.1z"/>
	</g>
</g>
</svg>
